<?xml version="1.0" encoding="utf-8"?>
<!-- Generator: Adobe Illustrator 18.1.0, SVG Export Plug-In . SVG Version: 6.00 Build 0)  -->
<!DOCTYPE svg PUBLIC "-//W3C//DTD SVG 1.1//EN" "http://www.w3.org/Graphics/SVG/1.1/DTD/svg11.dtd">
<svg version="1.1" id="Layer_1" xmlns="http://www.w3.org/2000/svg" xmlns:xlink="http://www.w3.org/1999/xlink" x="0px" y="0px"
	 viewBox="0 0 342.4 218.6" enable-background="new 0 0 342.4 218.6" xml:space="preserve">
<g>
	<g>
		<g>
			<path fill="#3FA5A0" d="M5.3,4.9c2.6,0,4.8-2.1,5-4.9H0C0.2,2.8,2.4,4.9,5.3,4.9z"/>
			<path fill="#F1A6A8" d="M44.2,4.8c2.8,0,5-2.1,5.3-4.8H39.1C39.4,2.8,41.6,4.8,44.2,4.8z"/>
			<path fill="#FFFFF8" d="M83.3,4.7c2.6,0,4.7-2,5-4.7H78C78.4,2.7,80.5,4.7,83.3,4.7z"/>
			<path fill="#B6DDDE" d="M24.4,25.2c2.8,0,5.3-2.4,5.3-5.4c0-3-2.6-5.4-5.3-5.4c-3,0-5.3,2.4-5.3,5.4C19,22.9,21.3,25.2,24.4,25.2
				z"/>
			<path fill="#B6DDDE" d="M63.2,25.1c3,0,5.3-2.4,5.3-5.4c0-3-2.3-5.4-5.3-5.3c-2.8,0-5.1,2.4-5.1,5.4
				C58.1,22.8,60.5,25.1,63.2,25.1z"/>
			<path fill="#F1A6A8" d="M5.5,51.7c2.8,0,5.1-2.6,5.1-5.4c0-3-2.3-5.4-5.1-5.4c-3,0-5.3,2.4-5.3,5.4C0.1,49.1,2.4,51.7,5.5,51.7z"
				/>
			<path fill="#FFFFF8" d="M44.4,51.6c3,0,5.3-2.6,5.3-5.4c0-3-2.3-5.4-5.3-5.4c-2.8,0-5.1,2.4-5.1,5.4C39.2,49,41.6,51.6,44.4,51.6
				z"/>
			<path fill="#FC5666" d="M83.5,51.4c2.8,0,5.1-2.6,5.1-5.4c0-3-2.3-5.4-5.1-5.4c-3,0-5.3,2.4-5.3,5.4
				C78.1,48.9,80.5,51.4,83.5,51.4z"/>
			<path fill="#FC5666" d="M122,4.5c2.5,0,4.6-1.9,5-4.5h-10.3C117.1,2.6,119.2,4.5,122,4.5z"/>
			<path fill="#3FA5A0" d="M160.8,4.4c2.7,0,4.8-1.9,5.2-4.4h-10.5C156.1,2.5,158.4,4.4,160.8,4.4z"/>
			<path fill="#B6DDDE" d="M200,4.2c2.4,0,4.5-1.8,5-4.2h-10.2C195.2,2.5,197.3,4.3,200,4.2z"/>
			<path fill="#3FA5A0" d="M238.8,4.1c2.6,0,4.6-1.7,5.2-4.1h-10.3C234.3,2.4,236.5,4.1,238.8,4.1z"/>
			<path fill="#FC5666" d="M278,4c2.3,0,4.3-1.7,4.9-4h-10C273.4,2.3,275.4,4,278,4z"/>
			<path fill="#B6DDDE" d="M316.8,3.8c2.5,0,4.4-1.6,5.1-3.8h-10.2C312.5,2.3,314.6,3.8,316.8,3.8z"/>
			<path fill="#F1A6A8" d="M101.9,24.9c3,0,5.3-2.4,5.3-5.4c0-3-2.3-5.4-5.3-5.4c-2.8,0-5.1,2.4-5.1,5.4
				C96.8,22.6,99.1,24.9,101.9,24.9z"/>
			<path fill="#FFFFF8" d="M141,24.8c2.8,0,5.1-2.4,5.1-5.4c0-3-2.3-5.4-5.1-5.4c-3,0-5.3,2.4-5.3,5.4C135.7,22.5,138,24.8,141,24.8
				z"/>
			<path fill="#F1A6A8" d="M179.9,24.7c3,0,5.3-2.4,5.3-5.4c0-3-2.3-5.4-5.3-5.4c-2.8,0-5.1,2.4-5.1,5.4
				C174.8,22.3,177.1,24.7,179.9,24.7z"/>
			<path fill="#FC5666" d="M219,24.5c2.8,0,5.1-2.4,5.1-5.4c0-3-2.3-5.4-5.1-5.4c-3,0-5.3,2.4-5.3,5.4C213.7,22.2,216,24.5,219,24.5
				z"/>
			<path fill="#B6DDDE" d="M257.9,24.4c3,0,5.3-2.4,5.3-5.4c0-3-2.3-5.4-5.3-5.4c-2.8,0-5.1,2.4-5.1,5.4
				C252.8,22.1,255.1,24.4,257.9,24.4z"/>
			<path fill="#3FA5A0" d="M297,24.2c2.8,0,5.1-2.4,5.1-5.4c0-3-2.3-5.4-5.1-5.4c-3,0-5.3,2.4-5.3,5.4C291.7,21.9,294,24.3,297,24.2
				z"/>
			<path fill="#B6DDDE" d="M122.1,51.3c2.8,0,5.1-2.6,5.1-5.4c0-3-2.3-5.4-5.1-5.4c-3,0-5.3,2.4-5.3,5.4
				C116.8,48.7,119.1,51.3,122.1,51.3z"/>
			<path fill="#B6DDDE" d="M161,51.2c3,0,5.3-2.6,5.3-5.4c0-3-2.3-5.4-5.3-5.4c-2.8,0-5.3,2.4-5.3,5.4
				C155.7,48.6,158.2,51.2,161,51.2z"/>
			<path fill="#3FA5A0" d="M200.1,51c2.8,0,5.1-2.6,5.1-5.4c0-3-2.3-5.4-5.1-5.4c-3,0-5.3,2.4-5.3,5.4C194.8,48.5,197.1,51,200.1,51
				z"/>
			<path fill="#FFFFF8" d="M239,50.9c3,0,5.3-2.6,5.3-5.4c0-3-2.3-5.4-5.3-5.4c-2.8,0-5.3,2.4-5.3,5.4
				C233.7,48.3,236.2,50.9,239,50.9z"/>
			<path fill="#B6DDDE" d="M278.1,50.7c2.8,0,5.1-2.6,5.1-5.4c0-3-2.3-5.4-5.1-5.4c-3,0-5.3,2.4-5.3,5.4
				C272.8,48.2,275.1,50.8,278.1,50.7z"/>
			<path fill="#F1A6A8" d="M317,50.6c3,0,5.3-2.6,5.3-5.4c0-3-2.3-5.4-5.3-5.4c-2.8,0-5.3,2.4-5.3,5.4
				C311.7,48.1,314.2,50.6,317,50.6z"/>
			<path fill="#FC5666" d="M24.5,78.8c2.8,0,5.3-2.4,5.3-5.4c0-2.8-2.6-5.4-5.3-5.4c-3,0-5.3,2.6-5.3,5.4
				C19.2,76.4,21.5,78.8,24.5,78.8z"/>
			<path fill="#FFFFF8" d="M63.4,78.6c3,0,5.3-2.4,5.3-5.4c0-2.8-2.3-5.4-5.3-5.4c-2.8,0-5.1,2.6-5.1,5.4
				C58.3,76.3,60.6,78.6,63.4,78.6z"/>
			<path fill="#B6DDDE" d="M5.6,105.3c2.8,0,5.1-2.4,5.1-5.4c0-3-2.3-5.4-5.1-5.4c-3,0-5.3,2.4-5.3,5.4
				C0.3,102.9,2.6,105.3,5.6,105.3z"/>
			<path fill="#3FA5A0" d="M44.5,105.1c3,0,5.3-2.4,5.3-5.4c0-3-2.3-5.4-5.3-5.4c-2.8,0-5.1,2.4-5.1,5.4
				C39.4,102.8,41.7,105.1,44.5,105.1z"/>
			<path fill="#B6DDDE" d="M83.6,105c2.8,0,5.1-2.4,5.1-5.4c0-3-2.3-5.4-5.1-5.4c-3,0-5.3,2.4-5.3,5.4C78.3,102.7,80.6,105,83.6,105
				z"/>
			<path fill="#FFFFF8" d="M24.7,125.5c2.8,0,5.3-2.6,5.3-5.4c0-3-2.6-5.4-5.3-5.4c-3,0-5.3,2.4-5.3,5.4
				C19.4,123,21.7,125.5,24.7,125.5z"/>
			<path fill="#B6DDDE" d="M63.6,125.4c3,0,5.3-2.6,5.3-5.4c0-3-2.3-5.4-5.3-5.4c-2.8,0-5.1,2.4-5.1,5.4
				C58.5,122.8,60.8,125.4,63.6,125.4z"/>
			<path fill="#B6DDDE" d="M5.8,151.8c2.8,0,5.1-2.4,5.1-5.4c0-2.8-2.3-5.1-5.1-5.1c-3,0-5.3,2.4-5.3,5.2
				C0.5,149.5,2.8,151.8,5.8,151.8z"/>
			<path fill="#FC5666" d="M44.7,151.6c3,0,5.3-2.4,5.3-5.4c0-2.8-2.3-5.1-5.3-5.1c-2.8,0-5.1,2.4-5.1,5.2
				C39.6,149.3,41.9,151.7,44.7,151.6z"/>
			<path fill="#FC5666" d="M83.8,151.5c2.8,0,5.1-2.4,5.1-5.4c0-2.8-2.3-5.1-5.1-5.1c-3,0-5.3,2.4-5.3,5.2
				C78.5,149.2,80.8,151.5,83.8,151.5z"/>
			<path fill="#F1A6A8" d="M24.8,172.1c2.8,0,5.3-2.4,5.3-5.4c0-3-2.6-5.4-5.3-5.4c-3,0-5.3,2.4-5.3,5.4
				C19.5,169.7,21.8,172.1,24.8,172.1z"/>
			<path fill="#FFFFF8" d="M63.7,171.9c3,0,5.3-2.4,5.3-5.4c0-3-2.3-5.4-5.3-5.4c-2.8,0-5.1,2.4-5.1,5.4
				C58.6,169.6,61,171.9,63.7,171.9z"/>
			<path fill="#B6DDDE" d="M5.9,187.8c-3,0-5.3,2.4-5.3,5.4c0,3,2.3,5.4,5.3,5.4c2.8,0,5.1-2.4,5.1-5.4
				C11,190.1,8.7,187.8,5.9,187.8z"/>
			<path fill="#3FA5A0" d="M44.8,187.7c-2.8,0-5.1,2.4-5.1,5.4c0,3,2.3,5.4,5.1,5.4c3,0,5.3-2.4,5.3-5.4
				C50.1,190,47.8,187.6,44.8,187.7z"/>
			<path fill="#F1A6A8" d="M83.9,187.5c-3,0-5.3,2.4-5.3,5.4c0,3,2.3,5.4,5.3,5.4c2.8,0,5.1-2.4,5.1-5.4
				C89,189.8,86.7,187.5,83.9,187.5z"/>
			<path fill="#FC5666" d="M25,208.1c-3,0-5.3,2.4-5.3,5.4c0,2.8,2.3,5.1,5.3,5.1c2.8,0,5.3-2.4,5.3-5.2
				C30.3,210.4,27.7,208.1,25,208.1z"/>
			<path fill="#B6DDDE" d="M63.9,207.9c-2.8,0-5.1,2.4-5.1,5.4c0,2.8,2.3,5.1,5.1,5.1c3,0,5.3-2.4,5.3-5.2
				C69.2,210.3,66.9,207.9,63.9,207.9z"/>
			<path fill="#3FA5A0" d="M102.1,78.5c3,0,5.3-2.4,5.3-5.4c0-2.8-2.3-5.4-5.3-5.4c-2.8,0-5.1,2.6-5.1,5.4
				C97,76.2,99.3,78.5,102.1,78.5z"/>
			<path fill="#FFFFF8" d="M141.2,78.3c2.8,0,5.1-2.4,5.1-5.4c0-2.8-2.3-5.4-5.1-5.4c-3,0-5.3,2.6-5.3,5.4
				C135.9,76,138.2,78.4,141.2,78.3z"/>
			<path fill="#F1A6A8" d="M180.1,78.2c3,0,5.3-2.4,5.3-5.4c0-2.8-2.3-5.4-5.3-5.4c-2.8,0-5.1,2.6-5.1,5.4
				C175,75.9,177.3,78.2,180.1,78.2z"/>
			<path fill="#FFFFF8" d="M219.2,78.1c2.8,0,5.1-2.4,5.1-5.4c0-2.8-2.3-5.4-5.1-5.4c-3,0-5.3,2.6-5.3,5.4
				C213.9,75.8,216.2,78.1,219.2,78.1z"/>
			<path fill="#F1A6A8" d="M258.1,77.9c3,0,5.3-2.4,5.3-5.4c0-2.8-2.3-5.4-5.3-5.4c-2.8,0-5.1,2.6-5.1,5.4
				C253,75.6,255.3,78,258.1,77.9z"/>
			<path fill="#FFFFF8" d="M297.2,77.8c2.8,0,5.1-2.4,5.1-5.4c0-2.8-2.3-5.4-5.1-5.4c-3,0-5.3,2.6-5.3,5.4
				C291.9,75.5,294.2,77.8,297.2,77.8z"/>
			<path fill="#FC5666" d="M122.3,104.8c2.8,0,5.1-2.4,5.1-5.4c0-3-2.3-5.4-5.1-5.4c-3,0-5.3,2.4-5.3,5.4
				C117,102.5,119.3,104.9,122.3,104.8z"/>
			<path fill="#FC5666" d="M161.2,104.7c3,0,5.3-2.4,5.3-5.4c0-3-2.3-5.4-5.3-5.4c-2.8,0-5.3,2.4-5.3,5.4
				C155.9,102.4,158.4,104.7,161.2,104.7z"/>
			<path fill="#B6DDDE" d="M200.3,104.6c2.8,0,5.1-2.4,5.1-5.4c0-3-2.3-5.4-5.1-5.4c-3,0-5.3,2.4-5.3,5.4
				C195,102.2,197.3,104.6,200.3,104.6z"/>
			<path fill="#B6DDDE" d="M239.2,104.4c3,0,5.3-2.4,5.3-5.4c0-3-2.3-5.4-5.3-5.4c-2.8,0-5.3,2.4-5.3,5.4
				C233.9,102.1,236.4,104.4,239.2,104.4z"/>
			<path fill="#3FA5A0" d="M278.3,104.3c2.8,0,5.1-2.4,5.1-5.4c0-3-2.3-5.4-5.1-5.4c-3,0-5.3,2.4-5.3,5.4
				C273,102,275.3,104.3,278.3,104.3z"/>
			<path fill="#FC5666" d="M317.2,93.4c-2.8,0-5.3,2.4-5.3,5.4c0,3,2.6,5.4,5.3,5.4c3,0,5.3-2.4,5.3-5.4
				C322.5,95.7,320.2,93.4,317.2,93.4z"/>
			<path fill="#F1A6A8" d="M102.2,125.3c3,0,5.3-2.6,5.3-5.4c0-3-2.3-5.4-5.3-5.4c-2.8,0-5.1,2.4-5.1,5.4
				C97.1,122.7,99.5,125.3,102.2,125.3z"/>
			<path fill="#B6DDDE" d="M141.3,125.1c2.8,0,5.1-2.6,5.1-5.4c0-3-2.3-5.4-5.1-5.4c-3,0-5.3,2.4-5.3,5.4
				C136,122.6,138.3,125.1,141.3,125.1z"/>
			<path fill="#FFFFF8" d="M180.2,125c3,0,5.3-2.6,5.3-5.4c0-3-2.3-5.4-5.4-5.4c-2.8,0-5.1,2.4-5.1,5.4
				C175.1,122.4,177.5,125,180.2,125z"/>
			<path fill="#FC5666" d="M219.3,124.8c2.8,0,5.1-2.6,5.1-5.4c0-3-2.3-5.4-5.1-5.4c-3,0-5.3,2.4-5.3,5.4
				C214,122.3,216.3,124.9,219.3,124.8z"/>
			<path fill="#FFFFF8" d="M258.2,124.7c3,0,5.3-2.6,5.3-5.4c0-3-2.3-5.4-5.3-5.4c-2.8,0-5.1,2.4-5.1,5.4
				C253.1,122.2,255.5,124.7,258.2,124.7z"/>
			<path fill="#B6DDDE" d="M297.4,124.6c2.8,0,5.1-2.6,5.1-5.4c0-3-2.3-5.4-5.1-5.4c-3,0-5.3,2.4-5.3,5.4
				C292,122,294.3,124.6,297.4,124.6z"/>
			<path fill="#B6DDDE" d="M122.5,151.4c2.8,0,5.1-2.4,5.1-5.4c0-2.8-2.3-5.1-5.1-5.1c-3,0-5.3,2.4-5.3,5.2
				C117.1,149.1,119.4,151.4,122.5,151.4z"/>
			<path fill="#3FA5A0" d="M161.3,151.2c3,0,5.3-2.4,5.3-5.4c0-2.8-2.3-5.1-5.3-5.1c-2.8,0-5.3,2.4-5.3,5.2
				C156,148.9,158.6,151.3,161.3,151.2z"/>
			<path fill="#F1A6A8" d="M200.5,151.1c2.8,0,5.1-2.4,5.1-5.4c0-2.8-2.3-5.1-5.1-5.1c-3,0-5.3,2.4-5.3,5.2
				C195.1,148.8,197.5,151.1,200.5,151.1z"/>
			<path fill="#B6DDDE" d="M239.3,151c3,0,5.3-2.4,5.3-5.4c0-2.8-2.3-5.1-5.3-5.1c-2.8,0-5.3,2.4-5.3,5.2
				C234,148.6,236.6,151,239.3,151z"/>
			<path fill="#F1A6A8" d="M278.5,150.8c2.8,0,5.1-2.4,5.1-5.4c0-2.8-2.3-5.1-5.1-5.1c-3,0-5.3,2.4-5.3,5.2
				C273.1,148.5,275.5,150.8,278.5,150.8z"/>
			<path fill="#FFFFF8" d="M317.3,140.2c-2.8,0-5.3,2.4-5.3,5.2c0,3,2.6,5.4,5.3,5.4c3,0,5.3-2.4,5.3-5.4
				C322.6,142.5,320.3,140.2,317.3,140.2z"/>
			<path fill="#FFFFF8" d="M102.4,171.8c3,0,5.3-2.4,5.3-5.4c0-3-2.3-5.4-5.3-5.4c-2.8,0-5.1,2.4-5.1,5.4
				C97.3,169.5,99.6,171.8,102.4,171.8z"/>
			<path fill="#F1A6A8" d="M141.5,171.6c2.8,0,5.1-2.4,5.1-5.4c0-3-2.3-5.4-5.1-5.4c-3,0-5.3,2.4-5.3,5.4
				C136.2,169.3,138.5,171.7,141.5,171.6z"/>
			<path fill="#B6DDDE" d="M180.4,171.5c3,0,5.3-2.4,5.3-5.4c0-3-2.3-5.4-5.3-5.4c-2.8,0-5.1,2.4-5.1,5.4
				C175.3,169.2,177.6,171.5,180.4,171.5z"/>
			<path fill="#3FA5A0" d="M219.5,171.4c2.8,0,5.1-2.4,5.1-5.4c0-3-2.3-5.4-5.1-5.4c-3,0-5.3,2.4-5.3,5.4
				C214.2,169.1,216.5,171.4,219.5,171.4z"/>
			<path fill="#FC5666" d="M258.4,171.2c3,0,5.3-2.4,5.3-5.4c0-3-2.3-5.4-5.3-5.4c-2.8,0-5.1,2.4-5.1,5.4
				C253.3,168.9,255.6,171.2,258.4,171.2z"/>
			<path fill="#B6DDDE" d="M297.5,171.1c2.8,0,5.1-2.4,5.1-5.4c0-3-2.3-5.4-5.1-5.4c-3,0-5.3,2.4-5.3,5.4
				C292.2,168.8,294.5,171.1,297.5,171.1z"/>
			<path fill="#B6DDDE" d="M122.6,187.4c-3,0-5.3,2.4-5.3,5.4c0,3,2.3,5.4,5.3,5.4c2.8,0,5.1-2.4,5.1-5.4
				C127.7,189.7,125.4,187.4,122.6,187.4z"/>
			<path fill="#FC5666" d="M161.5,187.3c-2.8,0-5.3,2.4-5.3,5.4c0,3,2.6,5.4,5.3,5.4c3,0,5.3-2.4,5.3-5.4
				C166.8,189.6,164.5,187.2,161.5,187.3z"/>
			<path fill="#FC5666" d="M200.6,187.1c-3,0-5.3,2.4-5.3,5.4c0,3,2.3,5.4,5.3,5.4c2.8,0,5.1-2.4,5.1-5.4
				C205.7,189.4,203.4,187.1,200.6,187.1z"/>
			<path fill="#F1A6A8" d="M239.5,187c-2.8,0-5.3,2.4-5.3,5.4c0,3,2.6,5.4,5.3,5.4c3,0,5.3-2.4,5.3-5.4
				C244.8,189.3,242.5,187,239.5,187z"/>
			<path fill="#FFFFF8" d="M278.6,186.8c-3,0-5.3,2.4-5.3,5.4c0,3,2.3,5.4,5.3,5.4c2.8,0,5.1-2.4,5.1-5.4
				C283.7,189.2,281.4,186.8,278.6,186.8z"/>
			<path fill="#FC5666" d="M317.5,186.7c-2.8,0-5.3,2.4-5.3,5.4c0,3,2.6,5.4,5.3,5.4c3,0,5.3-2.4,5.3-5.4
				C322.8,189,320.5,186.7,317.5,186.7z"/>
			<path fill="#FC5666" d="M102.5,207.8c-2.8,0-5.1,2.4-5.1,5.4c0,2.8,2.3,5.1,5.1,5.1c3,0,5.3-2.4,5.3-5.2
				C107.8,210.1,105.5,207.8,102.5,207.8z"/>
			<path fill="#FFFFF8" d="M141.6,207.7c-3,0-5.3,2.4-5.3,5.4c0,2.8,2.3,5.1,5.3,5.1c2.8,0,5.1-2.4,5.1-5.2
				C146.7,210,144.4,207.7,141.6,207.7z"/>
			<path fill="#3FA5A0" d="M180.5,207.5c-2.8,0-5.1,2.4-5.1,5.4c0,2.8,2.3,5.1,5.1,5.1c3,0,5.3-2.4,5.3-5.2
				C185.8,209.8,183.5,207.5,180.5,207.5z"/>
			<path fill="#FFFFF8" d="M219.6,207.4c-3,0-5.3,2.4-5.3,5.4c0,2.8,2.3,5.1,5.3,5.1c2.8,0,5.1-2.4,5.1-5.2
				C224.7,209.7,222.4,207.4,219.6,207.4z"/>
			<path fill="#3FA5A0" d="M258.5,207.3c-2.8,0-5.1,2.4-5.1,5.4c0,2.8,2.3,5.1,5.1,5.1c3,0,5.3-2.4,5.3-5.2
				C263.8,209.6,261.5,207.2,258.5,207.3z"/>
			<path fill="#B6DDDE" d="M297.6,207.1c-3,0-5.3,2.4-5.3,5.4c0,2.8,2.3,5.1,5.3,5.1c2.8,0,5.1-2.4,5.1-5.2
				C302.7,209.4,300.4,207.1,297.6,207.1z"/>
			<path fill="#C77A81" d="M336.4,22.9c2.8,0,5.3-2.4,5.3-5.4c0-3-2.6-5.4-5.3-5.4c-3,0-5.3,2.4-5.3,5.4
				C331.1,20.5,333.4,22.9,336.4,22.9z"/>
			<path fill="#B6DDDE" d="M336.6,65.7c-3,0-5.3,2.6-5.3,5.4c0,3,2.3,5.4,5.3,5.4c2.8,0,5.3-2.4,5.3-5.4
				C341.9,68.2,339.4,65.6,336.6,65.7z"/>
			<path fill="#FC5666" d="M336.7,112.4c-3,0-5.3,2.4-5.3,5.4c0,2.8,2.3,5.4,5.3,5.4c2.8,0,5.3-2.6,5.3-5.4
				C342.1,114.7,339.5,112.4,336.7,112.4z"/>
			<path fill="#F1A6A8" d="M336.9,159c-3,0-5.3,2.4-5.3,5.4c0,3,2.3,5.4,5.3,5.4c2.8,0,5.3-2.4,5.3-5.4
				C342.2,161.3,339.7,158.9,336.9,159z"/>
			<path fill="#FFFFF8" d="M337,205.7c-3,0-5.3,2.4-5.3,5.4c0,2.8,2.3,5.1,5.3,5.1c2.8,0,5.3-2.4,5.3-5.2
				C342.4,208,339.8,205.7,337,205.7z"/>
		</g>
	</g>
</g>
<g>
</g>
<g>
</g>
<g>
</g>
<g>
</g>
<g>
</g>
<g>
</g>
<g>
</g>
<g>
</g>
<g>
</g>
<g>
</g>
<g>
</g>
<g>
</g>
<g>
</g>
<g>
</g>
<g>
</g>
</svg>
