<?xml version="1.0" encoding="utf-8"?>
<!-- Generator: Adobe Illustrator 18.1.0, SVG Export Plug-In . SVG Version: 6.00 Build 0)  -->
<!DOCTYPE svg PUBLIC "-//W3C//DTD SVG 1.1//EN" "http://www.w3.org/Graphics/SVG/1.1/DTD/svg11.dtd">
<svg version="1.1" id="Layer_1" xmlns="http://www.w3.org/2000/svg" xmlns:xlink="http://www.w3.org/1999/xlink" x="0px" y="0px"
	 viewBox="0 0 450.3 165.5" enable-background="new 0 0 450.3 165.5" xml:space="preserve">
<g>
	<path fill-rule="evenodd" clip-rule="evenodd" fill="#4F2721" d="M415,131.8L56.4,30.7l0.1,0l-12.5-21l-1.6,7.2l7.1,11.9l-10.1-2.8
		l0.1,0l-12.5-21L25.2,12l7.1,11.9L22.2,21l0,0L9.7,0L8.1,7.2l7.1,11.9l-3.5-1l-1.2,4.1l3.4,1L2.3,29.3l-2.3,7l21.1-11.1l10,2.8
		l-11.6,6.1l-2.4,7L38.2,30l10,2.8l-11.6,6.1l-2.3,7l21.1-11.1l358.3,101c-2.5,0.8-4.1,2.3-4.8,4.8c-1.3,4.3,2.1,9.1,7.5,10.7
		c9.8,2.8,22-2.2,34.1-7.3c-7.5-10.7-15.1-21.4-24.9-24.2c-5.4-1.6-10.9,0.7-12.1,5C412.5,127.6,413.1,129.7,415,131.8z"/>
	<path fill="#F9415C" d="M185,4.2c20.2,0.1,30.2,10.2,40.2,30.3c10.1-20.1,20.2-30.2,40.4-30.1c22.3,0.1,40.3,18.2,40.2,40.4
		c-0.1,40.3-40.5,80.5-81,120.7c-40.2-40.4-80.4-80.8-80.3-121.1C144.6,22.1,162.7,4.1,185,4.2z"/>
</g>
<g>
	<path fill="#FFFFFF" d="M195.7,84.7h4.1V61.1h-7v5h-4.1v-8.7h26.4v8.7h-4.1v-5h-7v23.6h4.1v3.8h-12.4V84.7z"/>
	<path fill="#FFFFFF" d="M225.3,77.3h-6.3v-3.5h6.3v-6.4h3.6v6.4h6.3v3.5h-6.3v6.4h-3.6V77.3z"/>
	<path fill="#FFFFFF" d="M239.4,84.7h3.8V61.3h-3.8v-3.8h11.7c11.1,0,17.9,6,17.9,15.3c0,9.4-6.5,15.9-18.2,15.9h-11.4V84.7z
		 M251.4,84.7c8.8,0,13.2-4.8,13.2-12.1c0-7.2-5.3-11.4-13.6-11.4h-3.5v23.5H251.4z"/>
</g>
<g>
</g>
<g>
</g>
<g>
</g>
<g>
</g>
<g>
</g>
<g>
</g>
<g>
</g>
<g>
</g>
<g>
</g>
<g>
</g>
<g>
</g>
<g>
</g>
<g>
</g>
<g>
</g>
<g>
</g>
</svg>
