<?xml version="1.0" encoding="utf-8"?>
<!-- Generator: Adobe Illustrator 18.1.0, SVG Export Plug-In . SVG Version: 6.00 Build 0)  -->
<!DOCTYPE svg PUBLIC "-//W3C//DTD SVG 1.1//EN" "http://www.w3.org/Graphics/SVG/1.1/DTD/svg11.dtd">
<svg version="1.1" id="Layer_1" xmlns="http://www.w3.org/2000/svg" xmlns:xlink="http://www.w3.org/1999/xlink" x="0px" y="0px"
	 viewBox="0 0 297.7 297.7" enable-background="new 0 0 297.7 297.7" xml:space="preserve">
<g>
	<g>
		<polygon fill="#F98595" points="20.6,0 0,20.6 0,25.9 25.9,0 		"/>
		<polygon fill="#9FCDCD" points="50.4,0 0,50.4 0,55.6 55.6,0 		"/>
		<polygon fill="#FC5666" points="80.1,0 0,80.1 0,85.4 85.4,0 		"/>
		<polygon fill="#9FCDCD" points="109.9,0 0,109.9 0,115.2 115.2,0 		"/>
		<polygon fill="#F98595" points="139.7,0 0,139.7 0,145 145,0 		"/>
		<polygon fill="#9FCDCD" points="169.5,0 0,169.5 0,174.7 174.7,0 		"/>
		<polygon fill="#FC5666" points="199.2,0 0,199.2 0,204.5 204.5,0 		"/>
		<polygon fill="#9FCDCD" points="229,0 0,229 0,234.3 234.3,0 		"/>
		<polygon fill="#F98595" points="258.8,0 0,258.8 0,264 264,0 		"/>
		<polygon fill="#9FCDCD" points="288.5,0 0,288.5 0,293.8 293.8,0 		"/>
		<polygon fill="#FC5666" points="297.7,20.6 20.6,297.7 25.9,297.7 297.7,25.9 		"/>
		<polygon fill="#9FCDCD" points="297.7,50.4 50.4,297.7 55.6,297.7 297.7,55.6 		"/>
		<polygon fill="#F98595" points="297.7,80.1 80.1,297.7 85.4,297.7 297.7,85.4 		"/>
		<polygon fill="#9FCDCD" points="297.7,109.9 109.9,297.7 115.2,297.7 297.7,115.2 		"/>
		<polygon fill="#FC5666" points="297.7,139.7 139.7,297.7 145,297.7 297.7,145 		"/>
		<polygon fill="#9FCDCD" points="297.7,169.5 169.5,297.7 174.7,297.7 297.7,174.7 		"/>
		<polygon fill="#F98595" points="297.7,199.2 199.2,297.7 204.5,297.7 297.7,204.5 		"/>
		<polygon fill="#9FCDCD" points="297.7,229 229,297.7 234.3,297.7 297.7,234.3 		"/>
		<polygon fill="#FC5666" points="297.7,258.8 258.8,297.7 264,297.7 297.7,264 		"/>
		<polygon fill="#9FCDCD" points="297.7,288.5 288.5,297.7 293.8,297.7 297.7,293.8 		"/>
	</g>
</g>
<g>
</g>
<g>
</g>
<g>
</g>
<g>
</g>
<g>
</g>
<g>
</g>
<g>
</g>
<g>
</g>
<g>
</g>
<g>
</g>
<g>
</g>
<g>
</g>
<g>
</g>
<g>
</g>
<g>
</g>
</svg>
