<?xml version="1.0" encoding="utf-8"?>
<!-- Generator: Adobe Illustrator 18.1.0, SVG Export Plug-In . SVG Version: 6.00 Build 0)  -->
<!DOCTYPE svg PUBLIC "-//W3C//DTD SVG 1.1//EN" "http://www.w3.org/Graphics/SVG/1.1/DTD/svg11.dtd">
<svg version="1.1" id="Layer_1" xmlns="http://www.w3.org/2000/svg" xmlns:xlink="http://www.w3.org/1999/xlink" x="0px" y="0px"
	 viewBox="0 0 425.1 74.7" enable-background="new 0 0 425.1 74.7" xml:space="preserve">
<g>
	<g>
		<polygon fill-rule="evenodd" clip-rule="evenodd" fill="#502721" points="63.7,18.9 92.7,0 92.7,18.9 		"/>
		<polygon fill-rule="evenodd" clip-rule="evenodd" fill="#502721" points="361.4,18.9 332.3,0 332.3,18.9 		"/>
		<rect x="63.7" y="18.9" fill-rule="evenodd" clip-rule="evenodd" fill="#FC5666" width="297.7" height="55.8"/>
		<path fill-rule="evenodd" clip-rule="evenodd" fill="#F9415C" d="M63.7,58.6c1.9,0-63.7,0.3-63.7,0.3l18.3-28.2L0.5,0.3L92.7,0
			l-29,18.9V58.6z"/>
		<path fill-rule="evenodd" clip-rule="evenodd" fill="#F9415C" d="M361.4,58.6c-1.9,0,63.7,0.3,63.7,0.3l-18.3-28.2l17.8-30.4
			L332.3,0l29,18.9V58.6z"/>
	</g>
	<g>
		<path fill="#FFFFFF" d="M112.4,55.4h2.5V40.6h-4.4v3.1H108v-5.4h16.5v5.4H122v-3.1h-4.4v14.8h2.5v2.4h-7.8V55.4z"/>
		<path fill="#FFFFFF" d="M130.8,55.4h2.6v-5.2l-5.7-9.5h-2v-2.4h6.9v2.4h-1.9l4.1,7.2l4.1-7.2h-2v-2.4h6.9v2.4h-2l-5.7,9.4v5.3h2.6
			v2.4h-8V55.4z"/>
		<path fill="#FFFFFF" d="M145.6,55.4h2.4V40.7h-2.4v-2.4h7.7v2.4h-2.6v14.7h6.2v-2.9h2.6v5.2h-13.8V55.4z"/>
		<path fill="#FFFFFF" d="M161.9,55.4h2.4V40.7h-2.4v-2.4h14.3v5.1h-2.5v-2.7H167v6h6.2v2.3H167v6.4h6.7v-2.7h2.6v5.1h-14.3V55.4z"
			/>
		<path fill="#FFFFFF" d="M179.2,55.4h2.4V40.7h-2.4v-2.4h7.5c4.4,0,7.3,2,7.3,5.7c0,2.6-1.7,4.5-4,5.3l3.6,6h2.3v2.4h-4.1l-4.4-7.7
			c-0.4,0-0.8,0.1-1.2,0.1c-0.7,0-1.5,0-2-0.1v5.3h2.5v2.4h-7.6V55.4z M191.2,44.2c0-2.3-1.9-3.4-4.7-3.4h-2.3v7.1
			c0.5,0,1.2,0.1,2.2,0.1C189.2,47.8,191.2,46.5,191.2,44.2z"/>
		<path fill="#FFFFFF" d="M208.2,50.7h-4v-2.2h4v-4h2.3v4h4v2.2h-4v4h-2.3V50.7z"/>
		<path fill="#FFFFFF" d="M223.7,55.4h2.4V40.7h-2.4v-2.4h7.3c6.9,0,11.2,3.7,11.2,9.6c0,5.9-4.1,9.9-11.4,9.9h-7.1V55.4z
			 M231.2,55.4c5.5,0,8.3-3,8.3-7.6c0-4.5-3.3-7.1-8.5-7.1h-2.2v14.7H231.2z"/>
		<path fill="#FFFFFF" d="M245.1,55.4h2.5V40.7h-2.5v-2.4h7.7v2.4h-2.5v14.7h2.5v2.4h-7.7V55.4z"/>
		<path fill="#FFFFFF" d="M254.6,55.4h1.8l5.4-14.7h-2.2v-2.4h9.8v2.4h-2.2l5.4,14.7h1.8v2.4h-6.9v-2.4h2.3l-1.5-4.1h-7.7l-1.5,4.1
			h2.4v2.4h-6.9V55.4z M267.5,49.1l-3.1-8.5l-3.1,8.5H267.5z"/>
		<path fill="#FFFFFF" d="M281.2,43.1v12.3h2.5v2.4h-7.5v-2.4h2.4V40.7h-2.4v-2.4h4.7l10.5,13.7V40.7h-2.5v-2.4h7.4v2.4H294v17.2
			l-1.5,0L281.2,43.1z"/>
		<path fill="#FFFFFF" d="M297.7,55.4h1.8l5.4-14.7h-2.2v-2.4h9.8v2.4h-2.2l5.4,14.7h1.8v2.4h-6.9v-2.4h2.3l-1.5-4.1h-7.7l-1.5,4.1
			h2.4v2.4h-6.9V55.4z M310.7,49.1l-3.1-8.5l-3.1,8.5H310.7z"/>
	</g>
</g>
<g>
</g>
<g>
</g>
<g>
</g>
<g>
</g>
<g>
</g>
<g>
</g>
<g>
</g>
<g>
</g>
<g>
</g>
<g>
</g>
<g>
</g>
<g>
</g>
<g>
</g>
<g>
</g>
<g>
</g>
</svg>
