<?xml version="1.0" encoding="utf-8"?>
<!-- Generator: Adobe Illustrator 18.1.0, SVG Export Plug-In . SVG Version: 6.00 Build 0)  -->
<!DOCTYPE svg PUBLIC "-//W3C//DTD SVG 1.1//EN" "http://www.w3.org/Graphics/SVG/1.1/DTD/svg11.dtd">
<svg version="1.1" id="Layer_1" xmlns="http://www.w3.org/2000/svg" xmlns:xlink="http://www.w3.org/1999/xlink" x="0px" y="0px"
	 viewBox="0 0 678.9 139.4" enable-background="new 0 0 678.9 139.4" xml:space="preserve">
<g>
	<polygon fill-rule="evenodd" clip-rule="evenodd" fill="#502721" points="101.7,35.3 148.1,0 148.1,35.3 	"/>
	<polygon fill-rule="evenodd" clip-rule="evenodd" fill="#502721" points="577.1,35.3 530.8,0 530.8,35.3 	"/>
	<rect x="101.8" y="35.3" fill-rule="evenodd" clip-rule="evenodd" fill="#FC5666" width="475.4" height="104.1"/>
	<path fill-rule="evenodd" clip-rule="evenodd" fill="#F9415C" d="M101.8,109.3c3,0-101.8,0.5-101.8,0.5l29.3-52.6L0.9,0.5L148.1,0
		l-46.3,35.3V109.3z"/>
	<path fill-rule="evenodd" clip-rule="evenodd" fill="#F9415C" d="M577.1,109.3c-3,0,101.8,0.5,101.8,0.5l-29.3-52.6L678,0.5
		L530.8,0l46.4,35.3V109.3z"/>
</g>
<g>
	<path fill="#FFFFFF" d="M179.5,84.5h4.1V60.9h-7v5h-4.1v-8.7h26.4v8.7h-4.1v-5h-7v23.6h4.1v3.8h-12.4V84.5z"/>
	<path fill="#FFFFFF" d="M208.9,84.5h4.2v-8.4L204,61h-3.3v-3.8h11V61h-3l6.5,11.5l6.5-11.5h-3.2v-3.8h11V61h-3.3l-9,15v8.4h4.2v3.8
		h-12.7V84.5z"/>
	<path fill="#FFFFFF" d="M232.5,84.5h3.8V61h-3.8v-3.8h12.3V61h-4.2v23.5h9.8V80h4.1v8.4h-22.1V84.5z"/>
	<path fill="#FFFFFF" d="M258.6,84.5h3.8V61h-3.8v-3.8h22.9v8.1h-4.1V61h-10.7v9.7h9.8v3.7h-9.8v10.2h10.7v-4.4h4.1v8.1h-22.9V84.5z
		"/>
	<path fill="#FFFFFF" d="M286.2,84.5h3.8V61h-3.8v-3.8h11.9c7,0,11.7,3.3,11.7,9.2c0,4.2-2.6,7.2-6.3,8.5l5.8,9.6h3.6v3.8h-6.6
		L299.3,76c-0.6,0-1.2,0.1-1.8,0.1c-1.1,0-2.4,0-3.2-0.1v8.5h4v3.8h-12.1V84.5z M305.4,66.5c0-3.6-3-5.5-7.6-5.5h-3.6v11.3
		c0.8,0,1.9,0.1,3.5,0.1C302.2,72.4,305.4,70.3,305.4,66.5z"/>
	<path fill="#FFFFFF" d="M332.5,77h-6.3v-3.5h6.3v-6.4h3.6v6.4h6.3V77h-6.3v6.4h-3.6V77z"/>
	<path fill="#FFFFFF" d="M357.3,84.5h3.8V61h-3.8v-3.8H369c11.1,0,17.9,6,17.9,15.3c0,9.4-6.5,15.9-18.2,15.9h-11.4V84.5z
		 M369.3,84.5c8.8,0,13.2-4.8,13.2-12.1c0-7.2-5.3-11.4-13.6-11.4h-3.5v23.5H369.3z"/>
	<path fill="#FFFFFF" d="M391.4,84.5h4.1V61h-4.1v-3.8h12.4V61h-4v23.5h4v3.8h-12.4V84.5z"/>
	<path fill="#FFFFFF" d="M406.6,84.5h2.8l8.7-23.5h-3.5v-3.8h15.6V61h-3.5l8.7,23.5h2.9v3.8h-11.1v-3.8h3.6l-2.3-6.6h-12.3l-2.3,6.6
		h3.8v3.8h-11.1V84.5z M427.3,74.4l-4.9-13.6l-4.9,13.6H427.3z"/>
	<path fill="#FFFFFF" d="M449,64.8v19.7h4v3.8h-11.9v-3.8h3.8V61h-3.8v-3.8h7.5l16.8,22V61h-4v-3.8h11.8V61h-3.6v27.4l-2.4,0
		L449,64.8z"/>
	<path fill="#FFFFFF" d="M475.5,84.5h2.8L487,61h-3.5v-3.8h15.6V61h-3.5l8.7,23.5h2.9v3.8h-11.1v-3.8h3.6l-2.3-6.6h-12.3l-2.3,6.6
		h3.8v3.8h-11.1V84.5z M496.2,74.4l-4.9-13.6l-4.9,13.6H496.2z"/>
</g>
<g>
	<path fill="#B6DDDE" d="M283,113.1c0-5.5,3.6-9.5,8.6-9.5c5,0,8.6,4.1,8.6,9.5c0,5.5-3.6,9.6-8.6,9.6
		C286.6,122.7,283,118.6,283,113.1z M297,113.1c0-4-2.2-6.9-5.4-6.9s-5.4,2.9-5.4,6.9c0,4,2.2,6.9,5.4,6.9S297,117.1,297,113.1z"/>
	<path fill="#B6DDDE" d="M305.3,125.4l9.3-19h-8.9v3.8h-2.8v-6.3h14.8l0.7,1.5L308,126.8L305.3,125.4z"/>
	<path fill="#B6DDDE" d="M319.4,120.1c0-1.4,1.1-2.6,2.5-2.6s2.5,1.2,2.5,2.6s-1.1,2.6-2.5,2.6S319.4,121.5,319.4,120.1z"/>
	<path fill="#B6DDDE" d="M328.1,119.8h4.3v-12.7l-3.7,0.9l-0.7-2.6l6.2-1.6h1.4v16h4.2v2.6h-11.7V119.8z"/>
	<path fill="#B6DDDE" d="M343.3,119.8h4.3v-12.7l-3.7,0.9l-0.7-2.6l6.2-1.6h1.4v16h4.2v2.6h-11.7V119.8z"/>
	<path fill="#B6DDDE" d="M357.8,120.1c0-1.4,1.1-2.6,2.5-2.6c1.4,0,2.5,1.2,2.5,2.6s-1.1,2.6-2.5,2.6
		C359,122.7,357.8,121.5,357.8,120.1z"/>
	<path fill="#B6DDDE" d="M366.6,119.8h4.3v-12.7l-3.7,0.9l-0.7-2.6l6.2-1.6h1.4v16h4.2v2.6h-11.7V119.8z"/>
	<path fill="#B6DDDE" d="M383.2,120.3c1.1,0,2,0.9,2,2c0,0.4-0.2,0.9-0.5,1.3c0.8,0.4,1.9,0.6,3.2,0.6c3.1,0,5-2.1,5-4.8
		c0-2.6-1.8-4.5-5-4.5c-1.6,0-3.3,0.4-4.6,1l-1.4-0.8l1.4-11.4h11.6v2.9h-9.2l-0.7,6c0.9-0.3,2.2-0.5,3.4-0.5c4.5,0,7.8,2.7,7.8,7.2
		c0,4.4-3.4,7.5-8,7.5c-2.7,0-4.8-0.8-5.9-1.8c-0.7-0.7-1.1-1.5-1.1-2.4C381,121.4,381.9,120.3,383.2,120.3z"/>
</g>
<g>
</g>
<g>
</g>
<g>
</g>
<g>
</g>
<g>
</g>
<g>
</g>
<g>
</g>
<g>
</g>
<g>
</g>
<g>
</g>
<g>
</g>
<g>
</g>
<g>
</g>
<g>
</g>
<g>
</g>
</svg>
