<?xml version="1.0" encoding="utf-8"?>
<!-- Generator: Adobe Illustrator 18.1.0, SVG Export Plug-In . SVG Version: 6.00 Build 0)  -->
<!DOCTYPE svg PUBLIC "-//W3C//DTD SVG 1.1//EN" "http://www.w3.org/Graphics/SVG/1.1/DTD/svg11.dtd">
<svg version="1.1" id="Layer_1" xmlns="http://www.w3.org/2000/svg" xmlns:xlink="http://www.w3.org/1999/xlink" x="0px" y="0px"
	 viewBox="0 181.4 960 172.3" enable-background="new 0 181.4 960 172.3" xml:space="preserve">
<g>
	<polygon fill="#502721" points="143.8,220.8 209.4,181.4 209.4,220.8 	"/>
	<polygon fill="#502721" points="816,220.8 750.6,181.4 750.6,220.8 	"/>
	<rect x="144" y="220.8" fill="#FC5666" width="672.2" height="115.9"/>
	<path fill="#F9415C" d="M144,303.2c4.2,0-144,0.6-144,0.6l41.4-58.6L1.3,182l208.1-0.6L144,220.8V303.2z"/>
	<path fill="#F9415C" d="M816,303.2c-4.2,0,144,0.6,144,0.6l-41.4-58.6l40.2-63.2l-208.1-0.6l65.6,39.3v82.4H816z"/>
</g>
<g>
	<path fill="#FFFFFF" d="M253.8,292.9h5.8v-33.4h-9.9v7.1h-5.8v-12.3h37.3v12.3h-5.8v-7.1h-9.9v33.4h5.8v5.4h-17.5V292.9z"/>
	<path fill="#FFFFFF" d="M295.4,292.9h5.9V281l-12.9-21.4h-4.7v-5.4h15.6v5.4h-4.2l9.2,16.3l9.2-16.3H309v-5.4h15.6v5.4h-4.7
		l-12.7,21.2v11.9h5.9v5.4h-18v-5.2H295.4z"/>
	<path fill="#FFFFFF" d="M328.8,292.9h5.4v-33.2h-5.4v-5.4h17.4v5.4h-5.9v33.2h13.9v-6.4h5.8v11.9h-31.3v-5.5H328.8z"/>
	<path fill="#FFFFFF" d="M365.7,292.9h5.4v-33.2h-5.4v-5.4h32.4v11.5h-5.8v-6.1h-15.1v13.7H391v5.2h-13.9v14.4h15.1v-6.2h5.8v11.5
		h-32.4V292.9z"/>
	<path fill="#FFFFFF" d="M404.7,292.9h5.4v-33.2h-5.4v-5.4h16.8c9.9,0,16.5,4.7,16.5,13c0,5.9-3.7,10.2-8.9,12l8.2,13.6h5.1v5.4
		h-9.3l-9.9-17.4c-0.8,0-1.7,0.1-2.5,0.1c-1.6,0-3.4,0-4.5-0.1v12h5.7v5.4h-17.1L404.7,292.9L404.7,292.9z M431.9,267.5
		c0-5.1-4.2-7.8-10.7-7.8H416v16c1.1,0,2.7,0.1,4.9,0.1C427.3,275.8,431.9,272.8,431.9,267.5z"/>
	<path fill="#FFFFFF" d="M470.2,282.3h-8.9v-4.9h8.9v-9h5.1v9h8.9v4.9h-8.9v9h-5.1V282.3z"/>
	<path fill="#FFFFFF" d="M505.2,292.9h5.4v-33.2h-5.4v-5.4h16.5c15.7,0,25.3,8.5,25.3,21.6c0,13.3-9.2,22.5-25.7,22.5h-16.1V292.9z
		 M522.2,292.9c12.4,0,18.7-6.8,18.7-17.1c0-10.2-7.5-16.1-19.2-16.1h-4.9v33.2H522.2z"/>
	<path fill="#FFFFFF" d="M553.5,292.9h5.8v-33.2h-5.8v-5.4H571v5.4h-5.7v33.2h5.7v5.4h-17.5V292.9z"/>
	<path fill="#FFFFFF" d="M575,292.9h4l12.3-33.2h-4.9v-5.4h22.1v5.4h-4.9l12.3,33.2h4.1v5.4h-15.7v-5.4h5.1l-3.3-9.3h-17.4l-3.3,9.3
		h5.4v5.4H575L575,292.9L575,292.9z M604.2,278.6l-6.9-19.2l-6.9,19.2H604.2z"/>
	<path fill="#FFFFFF" d="M634.9,265.1v27.9h5.7v5.4h-16.8v-5.4h5.4v-33.2h-5.4v-5.4h10.6l23.8,31.1v-25.7h-5.7v-5.4h16.7v5.4H664
		v38.7h-3.4L634.9,265.1z"/>
	<path fill="#FFFFFF" d="M672.4,292.9h4l12.3-33.2h-4.9v-5.4h22.1v5.4h-4.9l12.3,33.2h4.1v5.4h-15.7v-5.4h5.1l-3.3-9.3H686l-3.3,9.3
		h5.4v5.4h-15.7L672.4,292.9L672.4,292.9z M701.7,278.6l-6.9-19.2l-6.9,19.2H701.7z"/>
</g>
<g>
	<path fill="#B6DDDE" d="M557.1,334.4c0-7.8,5.1-13.4,12.2-13.4s12.2,5.8,12.2,13.4c0,7.8-5.1,13.6-12.2,13.6
		S557.1,342.1,557.1,334.4z M576.9,334.4c0-5.7-3.1-9.8-7.6-9.8c-4.5,0-7.6,4.1-7.6,9.8s3.1,9.8,7.6,9.8
		C573.8,344.1,576.9,340,576.9,334.4z"/>
	<path fill="#B6DDDE" d="M588.7,351.8l13.2-26.9h-12.6v5.4h-4v-8.9h20.9l1,2.1l-14.7,30.3L588.7,351.8z"/>
	<path fill="#B6DDDE" d="M608.6,344.3c0-2,1.6-3.7,3.5-3.7s3.5,1.7,3.5,3.7s-1.6,3.7-3.5,3.7S608.6,346.2,608.6,344.3z"/>
	<path fill="#B6DDDE" d="M620.9,343.8h6.1v-18l-5.2,1.3l-1-3.7l8.8-2.3h2v22.6h5.9v3.7h-16.5L620.9,343.8L620.9,343.8z"/>
	<path fill="#B6DDDE" d="M642.4,343.8h6.1v-18l-5.2,1.3l-1-3.7l8.8-2.3h2v22.6h5.9v3.7h-16.5L642.4,343.8L642.4,343.8z"/>
	<path fill="#B6DDDE" d="M662.9,344.3c0-2,1.6-3.7,3.5-3.7s3.5,1.7,3.5,3.7s-1.6,3.7-3.5,3.7C664.6,347.9,662.9,346.2,662.9,344.3z"
		/>
	<path fill="#B6DDDE" d="M675.4,343.8h6.1v-18l-5.2,1.3l-1-3.7l8.8-2.3h2v22.6h5.9v3.7h-16.5V343.8L675.4,343.8z"/>
	<path fill="#B6DDDE" d="M698.8,344.6c1.6,0,2.8,1.3,2.8,2.8c0,0.6-0.3,1.3-0.7,1.8c1.1,0.6,2.7,0.8,4.5,0.8c4.4,0,7.1-3,7.1-6.8
		c0-3.7-2.5-6.4-7.1-6.4c-2.3,0-4.7,0.6-6.5,1.4l-2-1.1l2-16.1h16.4v4.1h-13l-1,8.5c1.3-0.4,3.1-0.7,4.8-0.7c6.4,0,11,3.8,11,10.2
		c0,6.2-4.8,10.6-11.3,10.6c-3.8,0-6.8-1.1-8.3-2.5c-1-1-1.6-2.1-1.6-3.4C695.7,346.1,697,344.6,698.8,344.6z"/>
</g>
</svg>
